#N canvas 561 29 1137 771 10;
#X obj 495 7 bng 15 250 50 0 empty empty empty 17 7 0 10 -262144 -1
-1;
#X obj 490 439 osc~;
#X floatatom 567 346 5 0 0 0 - - -;
#X obj 477 324 * 1000;
#X floatatom 506 277 5 0 0 0 - - -;
#X obj 567 73 counter;
#X obj 565 -26 tgl 15 0 empty empty empty 17 7 0 10 -262144 -1 -1 0
1;
#X floatatom 559 299 5 0 0 0 - - -;
#X floatatom 598 388 5 0 0 0 - - -;
#X floatatom 627 424 5 0 0 0 - - -;
#X floatatom 565 103 5 0 0 0 - - -;
#X floatatom 563 182 5 0 0 0 - - -;
#X obj 568 21 metro 500;
#X msg 651 -50 250;
#X msg 673 -21 500;
#X msg 665 18 1500;
#X obj 567 138 % 7;
#X obj 536 229 sel 0 1 2 3 4 5 6;
#X obj 492 519 dac~;
#X obj 529 473 *~ 0.3;
#X connect 0 0 12 0;
#X connect 1 0 19 0;
#X connect 2 0 1 0;
#X connect 3 0 1 0;
#X connect 4 0 3 0;
#X connect 5 0 10 0;
#X connect 6 0 12 0;
#X connect 7 0 3 0;
#X connect 8 0 1 0;
#X connect 9 0 1 0;
#X connect 10 0 16 0;
#X connect 11 0 17 0;
#X connect 12 0 5 0;
#X connect 13 0 12 1;
#X connect 14 0 12 1;
#X connect 15 0 12 1;
#X connect 16 0 11 0;
#X connect 17 1 4 0;
#X connect 17 2 4 0;
#X connect 17 3 2 0;
#X connect 17 4 8 0;
#X connect 17 5 9 0;
#X connect 19 0 18 0;
#X connect 19 0 18 1;
